<svg width="68" height="68" viewBox="0 0 68 68" fill="none" xmlns="http://www.w3.org/2000/svg">
    <path d="M34.0001 0.666748C15.6001 0.666748 0.666748 15.6001 0.666748 34.0001C0.666748 52.4001 15.6001 67.3334 34.0001 67.3334C52.4001 67.3334 67.3334 52.4001 67.3334 34.0001C67.3334 15.6001 52.4001 0.666748 34.0001 0.666748ZM47.3334 37.3334H37.3334V47.3334C37.3334 49.1667 35.8334 50.6668 34.0001 50.6668C32.1667 50.6668 30.6667 49.1667 30.6667 47.3334V37.3334H20.6667C18.8334 37.3334 17.3334 35.8334 17.3334 34.0001C17.3334 32.1667 18.8334 30.6667 20.6667 30.6667H30.6667V20.6667C30.6667 18.8334 32.1667 17.3334 34.0001 17.3334C35.8334 17.3334 37.3334 18.8334 37.3334 20.6667V30.6667H47.3334C49.1667 30.6667 50.6668 32.1667 50.6668 34.0001C50.6668 35.8334 49.1667 37.3334 47.3334 37.3334Z" fill="#1FB9B4"/>
</svg>
