<svg width="35" height="35" viewBox="0 0 35 35" fill="none" xmlns="http://www.w3.org/2000/svg">
    <path d="M17.5 23.3335C19.9162 23.3335 21.875 21.3747 21.875 18.9585C21.875 16.5423 19.9162 14.5835 17.5 14.5835C15.0838 14.5835 13.125 16.5423 13.125 18.9585C13.125 21.3747 15.0838 23.3335 17.5 23.3335Z" stroke="black" stroke-width="1.5"/>
    <path d="M2.91675 19.4892C2.91675 15.0194 2.91675 12.7853 4.00904 11.1811C4.48382 10.484 5.09138 9.88736 5.79696 9.42528C6.84696 8.73548 8.16237 8.48903 10.1763 8.40153C11.1374 8.40153 11.9642 7.68694 12.1524 6.7609C12.2961 6.08258 12.6697 5.4747 13.2099 5.04C13.7501 4.60529 14.4238 4.37041 15.1172 4.37507H19.883C21.3238 4.37507 22.5649 5.37403 22.8478 6.7609C23.0359 7.68694 23.8628 8.40153 24.8238 8.40153C26.8363 8.48903 28.1517 8.73694 29.2032 9.42528C29.9105 9.88903 30.5186 10.4855 30.9911 11.1811C32.0834 12.7853 32.0834 15.0194 32.0834 19.4892C32.0834 23.959 32.0834 26.1917 30.9911 27.7974C30.5163 28.4945 29.9088 29.0911 29.2032 29.5532C27.5684 30.6251 25.292 30.6251 20.7405 30.6251H14.2597C9.70821 30.6251 7.43175 30.6251 5.79696 29.5532C5.09177 29.0905 4.48471 28.4934 4.0105 27.7959C3.69366 27.324 3.46033 26.8011 3.32071 26.2501M27.7084 14.5834H26.2501" stroke="black" stroke-width="1.5" stroke-linecap="round"/>
</svg>
