<svg width="31" height="24" viewBox="0 0 31 24" fill="none" xmlns="http://www.w3.org/2000/svg">
    <path d="M25.7083 0.333252H5.29163C4.1313 0.333252 3.01851 0.794188 2.19803 1.61466C1.37756 2.43513 0.916626 3.54793 0.916626 4.70825V19.2916C0.916626 20.4519 1.37756 21.5647 2.19803 22.3852C3.01851 23.2057 4.1313 23.6666 5.29163 23.6666H25.7083C26.8686 23.6666 27.9814 23.2057 28.8019 22.3852C29.6224 21.5647 30.0833 20.4519 30.0833 19.2916V4.70825C30.0833 3.54793 29.6224 2.43513 28.8019 1.61466C27.9814 0.794188 26.8686 0.333252 25.7083 0.333252ZM24.7312 3.24992L15.5 10.177L6.26871 3.24992H24.7312ZM25.7083 20.7499H5.29163C4.90485 20.7499 4.53392 20.5963 4.26043 20.3228C3.98694 20.0493 3.83329 19.6784 3.83329 19.2916V5.07284L14.625 13.1666C14.8774 13.3559 15.1844 13.4583 15.5 13.4583C15.8155 13.4583 16.1225 13.3559 16.375 13.1666L27.1666 5.07284V19.2916C27.1666 19.6784 27.013 20.0493 26.7395 20.3228C26.466 20.5963 26.0951 20.7499 25.7083 20.7499Z" fill="black"/>
</svg>
