<svg width="24" height="23" viewBox="0 0 24 23" fill="none" xmlns="http://www.w3.org/2000/svg">
    <path d="M21.2141 9.19985C21.2141 8.89485 21.093 8.60234 20.8773 8.38667C20.6616 8.171 20.3691 8.04984 20.0641 8.04984C19.7591 8.04984 19.4666 8.171 19.251 8.38667C19.0353 8.60234 18.9141 8.89485 18.9141 9.19985H21.2141ZM5.11413 9.19985C5.11413 8.89485 4.99297 8.60234 4.7773 8.38667C4.56164 8.171 4.26913 8.04984 3.96413 8.04984C3.65913 8.04984 3.36663 8.171 3.15096 8.38667C2.93529 8.60234 2.81413 8.89485 2.81413 9.19985H5.11413ZM21.5511 12.3129C21.768 12.5224 22.0585 12.6383 22.36 12.6357C22.6615 12.6331 22.95 12.5121 23.1632 12.2989C23.3764 12.0857 23.4973 11.7973 23.5 11.4957C23.5026 11.1942 23.3867 10.9037 23.1772 10.6868L21.5511 12.3129ZM12.0141 1.14977L12.8272 0.336708C12.6115 0.121114 12.3191 0 12.0141 0C11.7092 0 11.4167 0.121114 11.2011 0.336708L12.0141 1.14977ZM0.851081 10.6868C0.741245 10.7929 0.653635 10.9198 0.593365 11.0601C0.533095 11.2004 0.50137 11.3513 0.500043 11.504C0.498717 11.6567 0.527814 11.8081 0.585637 11.9495C0.64346 12.0908 0.728851 12.2192 0.836827 12.3272C0.944804 12.4352 1.0732 12.5206 1.21453 12.5784C1.35587 12.6362 1.5073 12.6653 1.65999 12.664C1.81269 12.6627 1.96359 12.6309 2.1039 12.5707C2.2442 12.5104 2.3711 12.4228 2.47718 12.3129L0.851081 10.6868ZM6.26413 23H17.7641V20.7H6.26413V23ZM21.2141 19.55V9.19985H18.9141V19.55H21.2141ZM5.11413 19.55V9.19985H2.81413V19.55H5.11413ZM23.1772 10.6868L12.8272 0.336708L11.2011 1.96283L21.5511 12.3129L23.1772 10.6868ZM11.2011 0.336708L0.851081 10.6868L2.47718 12.3129L12.8272 1.96283L11.2011 0.336708ZM17.7641 23C18.6791 23 19.5567 22.6365 20.2037 21.9895C20.8507 21.3425 21.2141 20.465 21.2141 19.55H18.9141C18.9141 19.855 18.793 20.1475 18.5773 20.3631C18.3616 20.5788 18.0691 20.7 17.7641 20.7V23ZM6.26413 20.7C5.95913 20.7 5.66663 20.5788 5.45096 20.3631C5.23529 20.1475 5.11413 19.855 5.11413 19.55H2.81413C2.81413 20.465 3.17761 21.3425 3.82461 21.9895C4.47161 22.6365 5.34913 23 6.26413 23V20.7Z" fill="#9C9999"/>
</svg>
