<svg width="22" height="29" viewBox="0 0 22 29" fill="none" xmlns="http://www.w3.org/2000/svg">
<path d="M11 21.6666C10.2928 21.6666 9.61452 21.3856 9.11442 20.8855C8.61433 20.3854 8.33337 19.7072 8.33337 18.9999C8.33337 17.5199 9.52004 16.3333 11 16.3333C11.7073 16.3333 12.3856 16.6142 12.8857 17.1143C13.3858 17.6144 13.6667 18.2927 13.6667 18.9999C13.6667 19.7072 13.3858 20.3854 12.8857 20.8855C12.3856 21.3856 11.7073 21.6666 11 21.6666ZM19 25.6666V12.3333H3.00004V25.6666H19ZM19 9.66659C19.7073 9.66659 20.3856 9.94754 20.8857 10.4476C21.3858 10.9477 21.6667 11.626 21.6667 12.3333V25.6666C21.6667 26.3738 21.3858 27.0521 20.8857 27.5522C20.3856 28.0523 19.7073 28.3333 19 28.3333H3.00004C2.2928 28.3333 1.61452 28.0523 1.11442 27.5522C0.614325 27.0521 0.333374 26.3738 0.333374 25.6666V12.3333C0.333374 10.8533 1.52004 9.66659 3.00004 9.66659H4.33337V6.99992C4.33337 5.23181 5.03575 3.53612 6.286 2.28587C7.53624 1.03563 9.23193 0.333252 11 0.333252C11.8755 0.333252 12.7424 0.50569 13.5513 0.840722C14.3601 1.17575 15.095 1.66682 15.7141 2.28587C16.3331 2.90493 16.8242 3.63986 17.1592 4.4487C17.4943 5.25753 17.6667 6.12444 17.6667 6.99992V9.66659H19ZM11 2.99992C9.93917 2.99992 8.92176 3.42135 8.17161 4.17149C7.42147 4.92164 7.00004 5.93905 7.00004 6.99992V9.66659H15V6.99992C15 5.93905 14.5786 4.92164 13.8285 4.17149C13.0783 3.42135 12.0609 2.99992 11 2.99992Z" fill="black"/>
</svg>