<svg width="23" height="23" viewBox="0 0 23 23" fill="none" xmlns="http://www.w3.org/2000/svg">
    <path d="M6.48567 2.44905C6.25167 1.88436 5.57567 1.64468 5.07192 1.9908C3.91376 2.78623 2.9118 3.78792 2.11605 4.94586C1.76992 5.44961 2.00961 6.12561 2.5743 6.35961C3.05042 6.55705 3.5948 6.36774 3.89461 5.94768C4.49633 5.10702 5.23227 4.37109 6.07292 3.76936C6.49299 3.46874 6.6823 2.92518 6.48567 2.44905ZM9.96236 2.15818C9.45374 2.24268 8.93455 1.99243 8.73711 1.5163C8.50311 0.950801 8.81105 0.304051 9.4123 0.191926C10.7956 -0.0645204 12.2144 -0.0639695 13.5975 0.193551C14.1987 0.305676 14.5067 0.952426 14.2719 1.51793C14.0752 1.99405 13.5552 2.2443 13.0466 2.1598C12.0256 1.98991 10.9836 1.98936 9.96236 2.15818ZM20.4282 6.36368C19.952 6.56111 19.4077 6.37099 19.1079 5.95093C18.507 5.11082 17.7722 4.37518 16.9328 3.77343C16.5144 3.47361 16.325 2.93005 16.5217 2.45393C16.7557 1.88924 17.4317 1.64955 17.9362 1.99568C19.0926 2.79133 20.0929 3.79271 20.8872 4.94993C21.2325 5.45449 20.9929 6.12968 20.4282 6.36368ZM21.3593 14.1409C20.8832 13.9435 20.6329 13.4243 20.7174 12.9157C20.8858 11.8975 20.8858 10.8586 20.7174 9.84036C20.6337 9.33255 20.884 8.81336 21.3601 8.61593C21.9256 8.38193 22.5724 8.68986 22.6845 9.29193C22.9395 10.6716 22.939 12.0863 22.6829 13.4657C22.5715 14.067 21.924 14.3757 21.3593 14.1409ZM16.5168 20.3013C16.3202 19.8244 16.5103 19.2808 16.9295 18.981C17.7692 18.3795 18.5043 17.6442 19.1054 16.8043C19.4052 16.3851 19.9488 16.1949 20.4257 16.3924C20.9904 16.6264 21.2301 17.3024 20.884 17.8061C20.089 18.9632 19.0882 19.9643 17.9314 20.7596C17.4276 21.1057 16.7508 20.866 16.5168 20.3013ZM8.74199 21.2373C8.94024 20.7612 9.45861 20.5109 9.96724 20.5946C10.9853 20.7624 12.0239 20.7618 13.0417 20.593C13.5504 20.5085 14.0695 20.7587 14.267 21.2349C14.501 21.8004 14.193 22.4471 13.5926 22.5592C12.2129 22.8155 10.7979 22.816 9.41799 22.5609C8.81674 22.4496 8.50799 21.802 8.7428 21.2365M2.57755 16.3964C3.05367 16.199 3.59724 16.3883 3.89705 16.8084C4.49933 17.6489 5.23581 18.3845 6.07699 18.9859C6.49705 19.2857 6.68717 19.8292 6.48974 20.3062C6.25574 20.8709 5.58055 21.1106 5.07599 20.7644C3.91739 19.9696 2.91487 18.9685 2.11849 17.811C1.77236 17.3064 2.01286 16.6304 2.57755 16.3964ZM1.64074 8.61105C2.11686 8.80849 2.36711 9.32768 2.28261 9.8363C2.11361 10.8572 2.11389 11.8989 2.28342 12.9197C2.36792 13.4292 2.11767 13.9484 1.64155 14.1458C1.07686 14.3798 0.430111 14.0727 0.317174 13.4714C0.0602911 12.0885 0.0602911 10.67 0.317174 9.28705C0.428486 8.6858 1.07524 8.37705 1.64074 8.61105Z" fill="#9C9999"/>
    <path d="M9.46826 6C8.94676 6.00207 8.4472 6.21016 8.07844 6.57892C7.70967 6.94769 7.50159 7.44724 7.49951 7.96875C7.49951 9.04988 8.38714 9.9375 9.46826 9.9375C10.5494 9.9375 11.437 9.04988 11.437 7.96875C11.437 6.88762 10.5494 6 9.46826 6ZM14.5308 6C14.0093 6.00207 13.5097 6.21016 13.1409 6.57892C12.7722 6.94769 12.5641 7.44724 12.562 7.96875C12.562 9.04988 13.4496 9.9375 14.5308 9.9375C15.6119 9.9375 16.4995 9.04988 16.4995 7.96875C16.4995 6.88762 15.6119 6 14.5308 6ZM9.46826 7.125C9.94076 7.125 10.312 7.49625 10.312 7.96875C10.312 8.44125 9.94076 8.8125 9.46826 8.8125C8.99576 8.8125 8.62451 8.44125 8.62451 7.96875C8.62451 7.49625 8.99576 7.125 9.46826 7.125ZM14.5308 7.125C15.0033 7.125 15.3745 7.49625 15.3745 7.96875C15.3745 8.44125 15.0033 8.8125 14.5308 8.8125C14.0583 8.8125 13.687 8.44125 13.687 7.96875C13.687 7.49625 14.0583 7.125 14.5308 7.125ZM6.93701 9.375C5.69951 9.375 4.68701 10.3875 4.68701 11.625C4.68701 12.2511 4.95532 12.8158 5.3727 13.2248C4.98996 13.4833 4.67617 13.8314 4.45863 14.2388C4.2411 14.6462 4.1264 15.1006 4.12451 15.5625H5.24951C5.24951 14.6243 5.99876 13.875 6.93701 13.875C7.87526 13.875 8.62451 14.6243 8.62451 15.5625H9.74951C9.74763 15.1006 9.63293 14.6462 9.41539 14.2388C9.19785 13.8314 8.88407 13.4833 8.50132 13.2248C8.9187 12.8158 9.18701 12.2516 9.18701 11.625C9.18701 10.3875 8.17451 9.375 6.93701 9.375ZM9.74951 15.5625C9.39795 16.0328 9.18701 16.6239 9.18701 17.25H10.312C10.312 16.3118 11.0613 15.5625 11.9995 15.5625C12.9378 15.5625 13.687 16.3118 13.687 17.25H14.812C14.8112 16.6416 14.6139 16.0497 14.2495 15.5625C14.0583 15.3077 13.8276 15.09 13.5638 14.9122C13.9812 14.5033 14.2495 13.9391 14.2495 13.3125C14.2495 12.075 13.237 11.0625 11.9995 11.0625C10.762 11.0625 9.74951 12.075 9.74951 13.3125C9.74951 13.9386 10.0178 14.5033 10.4352 14.9122C10.1716 15.0888 9.93976 15.3086 9.74951 15.5625ZM14.2495 15.5625H15.3745C15.3745 14.6243 16.1238 13.875 17.062 13.875C18.0003 13.875 18.7495 14.6243 18.7495 15.5625H19.8745C19.8726 15.1006 19.7579 14.6462 19.5404 14.2388C19.3229 13.8314 19.0091 13.4833 18.6263 13.2248C19.0437 12.8158 19.312 12.2516 19.312 11.625C19.312 10.3875 18.2995 9.375 17.062 9.375C15.8245 9.375 14.812 10.3875 14.812 11.625C14.812 12.2511 15.0803 12.8158 15.4977 13.2248C15.115 13.4833 14.8012 13.8314 14.5836 14.2388C14.3661 14.6462 14.2514 15.1006 14.2495 15.5625ZM6.93701 10.5C7.56532 10.5 8.06201 10.9967 8.06201 11.625C8.06201 12.2533 7.56532 12.75 6.93701 12.75C6.3087 12.75 5.81201 12.2533 5.81201 11.625C5.81201 10.9967 6.3087 10.5 6.93701 10.5ZM17.062 10.5C17.6903 10.5 18.187 10.9967 18.187 11.625C18.187 12.2533 17.6903 12.75 17.062 12.75C16.4337 12.75 15.937 12.2533 15.937 11.625C15.937 10.9967 16.4337 10.5 17.062 10.5ZM11.9995 12.1875C12.6278 12.1875 13.1245 12.6842 13.1245 13.3125C13.1245 13.9408 12.6278 14.4375 11.9995 14.4375C11.3712 14.4375 10.8745 13.9408 10.8745 13.3125C10.8745 12.6842 11.3712 12.1875 11.9995 12.1875Z" fill="#9C9999"/>
</svg>
