<svg width="18" height="21" viewBox="0 0 18 21" fill="none" xmlns="http://www.w3.org/2000/svg">
    <path d="M17 19.5C17 16.739 13.418 14.5 9 14.5C4.582 14.5 1 16.739 1 19.5M9 11.5C7.67392 11.5 6.40215 10.9732 5.46447 10.0355C4.52678 9.09785 4 7.82608 4 6.5C4 5.17392 4.52678 3.90215 5.46447 2.96447C6.40215 2.02678 7.67392 1.5 9 1.5C10.3261 1.5 11.5979 2.02678 12.5355 2.96447C13.4732 3.90215 14 5.17392 14 6.5C14 7.82608 13.4732 9.09785 12.5355 10.0355C11.5979 10.9732 10.3261 11.5 9 11.5Z" stroke="#9C9999" stroke-width="2" stroke-linecap="round" stroke-linejoin="round"/>
</svg>
