<svg width="23" height="23" viewBox="0 0 23 23" fill="none" xmlns="http://www.w3.org/2000/svg">
    <path d="M22.3838 20.6088L18.1338 16.3713C19.5051 14.6244 20.2491 12.4672 20.2463 10.2463C20.2463 8.26853 19.6599 6.33513 18.561 4.69064C17.4622 3.04615 15.9004 1.76442 14.0732 1.00755C12.2459 0.250671 10.2352 0.0526374 8.29544 0.43849C6.35563 0.824342 4.5738 1.77675 3.17527 3.17527C1.77675 4.5738 0.824342 6.35563 0.43849 8.29544C0.0526374 10.2352 0.250671 12.2459 1.00755 14.0732C1.76442 15.9004 3.04615 17.4622 4.69064 18.561C6.33513 19.6599 8.26853 20.2463 10.2463 20.2463C12.4672 20.2491 14.6244 19.5051 16.3713 18.1338L20.6088 22.3838C20.725 22.501 20.8633 22.594 21.0156 22.6575C21.1679 22.7209 21.3313 22.7536 21.4963 22.7536C21.6614 22.7536 21.8247 22.7209 21.9771 22.6575C22.1294 22.594 22.2676 22.501 22.3838 22.3838C22.501 22.2676 22.594 22.1294 22.6575 21.9771C22.7209 21.8247 22.7536 21.6614 22.7536 21.4963C22.7536 21.3313 22.7209 21.1679 22.6575 21.0156C22.594 20.8633 22.501 20.725 22.3838 20.6088ZM2.74634 10.2463C2.74634 8.76298 3.18621 7.31293 4.01032 6.07957C4.83443 4.8462 6.00577 3.8849 7.37622 3.31725C8.74666 2.74959 10.2547 2.60106 11.7095 2.89045C13.1644 3.17984 14.5007 3.89415 15.5496 4.94304C16.5985 5.99194 17.3128 7.32831 17.6022 8.78316C17.8916 10.238 17.7431 11.746 17.1754 13.1165C16.6078 14.4869 15.6465 15.6583 14.4131 16.4824C13.1798 17.3065 11.7297 17.7463 10.2463 17.7463C8.25722 17.7463 6.34956 16.9562 4.94304 15.5496C3.53652 14.1431 2.74634 12.2355 2.74634 10.2463Z" fill="#9C9999"/>
</svg>
