<svg width="25" height="26" viewBox="0 0 25 26" fill="none" xmlns="http://www.w3.org/2000/svg">
    <path d="M22.875 13.825C22.6746 13.5969 22.5641 13.3036 22.5641 13C22.5641 12.6964 22.6746 12.4031 22.875 12.175L24.475 10.375C24.6513 10.1783 24.7608 9.93087 24.7877 9.66813C24.8147 9.40538 24.7577 9.14085 24.625 8.91249L22.125 4.58749C21.9936 4.35939 21.7936 4.17859 21.5534 4.07085C21.3133 3.96311 21.0452 3.93394 20.7875 3.98749L18.4375 4.46249C18.1385 4.52428 17.8272 4.47448 17.5624 4.32249C17.2975 4.17051 17.0975 3.92684 17 3.63749L16.2375 1.34999C16.1536 1.10171 15.9939 0.886072 15.7808 0.733543C15.5677 0.581015 15.312 0.499315 15.05 0.499991H10.05C9.77741 0.485763 9.50766 0.561149 9.28195 0.714634C9.05624 0.868118 8.88697 1.09126 8.79999 1.34999L8.09999 3.63749C8.00249 3.92684 7.80246 4.17051 7.53763 4.32249C7.27281 4.47448 6.96151 4.52428 6.66249 4.46249L4.24999 3.98749C4.00568 3.95297 3.75662 3.99152 3.53418 4.09829C3.31174 4.20506 3.12587 4.37528 2.99999 4.58749L0.499992 8.91249C0.363942 9.1383 0.30277 9.40135 0.325221 9.66402C0.347671 9.92669 0.452595 10.1755 0.624992 10.375L2.21249 12.175C2.41289 12.4031 2.52341 12.6964 2.52341 13C2.52341 13.3036 2.41289 13.5969 2.21249 13.825L0.624992 15.625C0.452595 15.8244 0.347671 16.0733 0.325221 16.336C0.30277 16.5986 0.363942 16.8617 0.499992 17.0875L2.99999 21.4125C3.13136 21.6406 3.33139 21.8214 3.57156 21.9291C3.81172 22.0369 4.07977 22.066 4.33749 22.0125L6.68749 21.5375C6.98651 21.4757 7.29781 21.5255 7.56263 21.6775C7.82746 21.8295 8.02749 22.0731 8.12499 22.3625L8.88749 24.65C8.97447 24.9087 9.14374 25.1319 9.36945 25.2853C9.59516 25.4388 9.86491 25.5142 10.1375 25.5H15.1375C15.3995 25.5007 15.6552 25.419 15.8683 25.2664C16.0814 25.1139 16.2411 24.8983 16.325 24.65L17.0875 22.3625C17.185 22.0731 17.385 21.8295 17.6499 21.6775C17.9147 21.5255 18.226 21.4757 18.525 21.5375L20.875 22.0125C21.1327 22.066 21.4008 22.0369 21.6409 21.9291C21.8811 21.8214 22.0811 21.6406 22.2125 21.4125L24.7125 17.0875C24.8452 16.8591 24.9022 16.5946 24.8752 16.3319C24.8483 16.0691 24.7388 15.8217 24.5625 15.625L22.875 13.825ZM21.0125 15.5L22.0125 16.625L20.4125 19.4L18.9375 19.1C18.0372 18.916 17.1007 19.0689 16.3057 19.5297C15.5108 19.9906 14.9127 20.7273 14.625 21.6L14.15 23H10.95L10.5 21.575C10.2123 20.7023 9.61422 19.9656 8.81925 19.5047C8.02428 19.0439 7.08777 18.891 6.18749 19.075L4.71249 19.375L3.08749 16.6125L4.08749 15.4875C4.70244 14.8 5.04241 13.9099 5.04241 12.9875C5.04241 12.0651 4.70244 11.175 4.08749 10.4875L3.08749 9.36249L4.68749 6.61249L6.16249 6.91249C7.06277 7.09652 7.99928 6.94359 8.79425 6.48274C9.58922 6.02189 10.1873 5.28519 10.475 4.41249L10.95 2.99999H14.15L14.625 4.42499C14.9127 5.29769 15.5108 6.03439 16.3057 6.49524C17.1007 6.95609 18.0372 7.10902 18.9375 6.92499L20.4125 6.62499L22.0125 9.39999L21.0125 10.525C20.4044 11.2109 20.0687 12.0958 20.0687 13.0125C20.0687 13.9291 20.4044 14.814 21.0125 15.5ZM12.55 7.99999C11.5611 7.99999 10.5944 8.29324 9.77214 8.84264C8.94989 9.39205 8.30903 10.1729 7.93059 11.0866C7.55216 12.0002 7.45314 13.0055 7.64607 13.9754C7.83899 14.9453 8.3152 15.8363 9.01446 16.5355C9.71372 17.2348 10.6046 17.711 11.5745 17.9039C12.5444 18.0968 13.5498 17.9978 14.4634 17.6194C15.377 17.241 16.1579 16.6001 16.7073 15.7778C17.2567 14.9556 17.55 13.9889 17.55 13C17.55 11.6739 17.0232 10.4021 16.0855 9.46446C15.1478 8.52678 13.8761 7.99999 12.55 7.99999ZM12.55 15.5C12.0555 15.5 11.5722 15.3534 11.1611 15.0787C10.7499 14.804 10.4295 14.4135 10.2403 13.9567C10.0511 13.4999 10.0016 12.9972 10.098 12.5123C10.1945 12.0273 10.4326 11.5819 10.7822 11.2322C11.1319 10.8826 11.5773 10.6445 12.0623 10.548C12.5472 10.4516 13.0499 10.5011 13.5067 10.6903C13.9635 10.8795 14.354 11.1999 14.6287 11.6111C14.9034 12.0222 15.05 12.5055 15.05 13C15.05 13.663 14.7866 14.2989 14.3178 14.7678C13.8489 15.2366 13.213 15.5 12.55 15.5Z" fill="black"/>
</svg>
