<svg width="26" height="23" viewBox="0 0 26 23" fill="none" xmlns="http://www.w3.org/2000/svg">
    <path d="M4.40478 18.4232C2.54543 16.5646 1.50055 14.0435 1.5 11.4146C1.49945 8.78563 2.54327 6.26412 4.40183 4.40478C6.26039 2.54543 8.78146 1.50055 11.4104 1.5C13.0283 1.49966 14.6055 1.89485 16.0127 2.63206C17.4801 3.40082 17.4711 5.3517 16.3002 6.5236L13.5341 9.29207C12.3637 10.4634 12.3637 12.3616 13.5341 13.5329L16.2992 16.3003C17.4705 17.4726 17.4789 19.4243 16.0106 20.1926C14.6044 20.9284 13.0288 21.3229 11.4125 21.3229C8.78467 21.3229 6.26427 20.28 4.40478 18.4232ZM23.3642 16.0182C22.5941 17.4846 20.6437 17.4736 19.473 16.302L16.7063 13.5329C15.5359 12.3616 15.5359 10.4634 16.7063 9.29207L19.473 6.52304C20.6437 5.35137 22.5941 5.34044 23.3642 6.80682C23.5028 7.07078 23.6297 7.34131 23.7443 7.61765C24.2432 8.82062 24.5 10.1102 24.5 11.4125C24.5 12.7148 24.2432 14.0044 23.7443 15.2073C23.6297 15.4837 23.5028 15.7542 23.3642 16.0182Z" stroke="#9C9999" stroke-width="2" stroke-linecap="round" stroke-linejoin="round"/>
</svg>
