<svg width="30" height="30" viewBox="0 0 30 30" fill="none" xmlns="http://www.w3.org/2000/svg">
    <path d="M13.75 16.875V26.875H3.75V16.875H13.75ZM11.25 19.375H6.25V24.375H11.25V19.375ZM15 2.5L21.875 13.75H8.125L15 2.5ZM15 7.325L12.6 11.25H17.4L15 7.325ZM21.875 16.25C25 16.25 27.5 18.75 27.5 21.875C27.5 25 25 27.5 21.875 27.5C18.75 27.5 16.25 25 16.25 21.875C16.25 18.75 18.75 16.25 21.875 16.25ZM21.875 18.75C21.0462 18.75 20.2513 19.0792 19.6653 19.6653C19.0792 20.2513 18.75 21.0462 18.75 21.875C18.75 22.7038 19.0792 23.4987 19.6653 24.0847C20.2513 24.6708 21.0462 25 21.875 25C22.7038 25 23.4987 24.6708 24.0847 24.0847C24.6708 23.4987 25 22.7038 25 21.875C25 21.0462 24.6708 20.2513 24.0847 19.6653C23.4987 19.0792 22.7038 18.75 21.875 18.75Z" fill="black"/>
</svg>
